# xmcd
#
# Track frame offsets:
#	150
#	21838
#	51421
#	76992
#	92385
#	112258
#	131843
#	157140
#	176455
#	195450
#	218921
#	234447
#
# Disc length: 3483 seconds
#
# Revision: 0
# Processed by: cddbd v1.5.1PL0 Copyright (c) Steve Scherf et al.
# Submitted via: dBpowerAMP V4.0
#
DISCID=a20d990c
DTITLE=Taki Sumaj - Ojos Azules
DYEAR=2001
DGENRE=Andina
TTITLE0=Moliendo Café
TTITLE1=Soplo de Vida
TTITLE2=La Guaneña, Mi Buenaventura y Mi Nariño
TTITLE3=Dulces Labios
TTITLE4=Cariñito
TTITLE5=Palomita
TTITLE6=Ojos Azules
TTITLE7=Cielo Cielito
TTITLE8=El Humahuaqueño
TTITLE9=Como la Orquídea
TTITLE10=Jainy
TTITLE11=Pajaro Campana, Pajaro Chogüi y Alma Llanera
EXTD=
EXTT0=
EXTT1=
EXTT2=
EXTT3=
EXTT4=
EXTT5=
EXTT6=
EXTT7=
EXTT8=
EXTT9=
EXTT10=
EXTT11=
PLAYORDER=
